<svg xmlns="http://www.w3.org/2000/svg" width="150" height="206.494" viewBox="0 0 512 206.494">
  <g fill="#fff">
    <path d="M164.489 0v36.108h30.09v25.677h-30.09V90.27a29.009 29.009 0 0 0 2.407 11.735 30.022 30.022 0 0 0 15.953 15.948 29.005 29.005 0 0 0 11.735 2.407v27.282h-4.012a56.233 56.233 0 0 1-22.768-4.514 53.862 53.862 0 0 1-17.755-12.336 56.084 56.084 0 0 1-11.535-18.255 60.123 60.123 0 0 1-4.113-22.267V0ZM80.386 112.483a31.309 31.309 0 0 1-6.766 4.667 28.874 28.874 0 0 1-13.44 3.21 28.559 28.559 0 0 1-17.352-5.516 31.629 31.629 0 0 1-10.934-14.142h87.464q.4-2.6.7-5.115a44.762 44.762 0 0 0 .3-5.316 53.471 53.471 0 0 0-4.714-22.267 58.647 58.647 0 0 0-12.839-18.254 60.154 60.154 0 0 0-19.157-12.337 63.276 63.276 0 0 0-46.942 0A60.1 60.1 0 0 0 17.549 49.75 58.585 58.585 0 0 0 4.711 68.004a54.947 54.947 0 0 0 0 44.534 58.549 58.549 0 0 0 12.838 18.255 60.1 60.1 0 0 0 19.157 12.336 63.25 63.25 0 0 0 42.428 1.6 64.687 64.687 0 0 0 16.449-8.024 55.778 55.778 0 0 0 13.04-12.336 57.86 57.86 0 0 0 7.026-11.889ZM42.828 63.145a29.89 29.89 0 0 1 34.6 0 31.439 31.439 0 0 1 11.039 14.142H31.894a31.662 31.662 0 0 1 10.934-14.142M285.996 112.483a31.309 31.309 0 0 1-6.766 4.667 28.87 28.87 0 0 1-13.44 3.21 28.553 28.553 0 0 1-17.351-5.516 31.624 31.624 0 0 1-10.936-14.142h87.464q.4-2.6.7-5.115a44.774 44.774 0 0 0 .3-5.316 53.472 53.472 0 0 0-4.714-22.267 58.647 58.647 0 0 0-12.839-18.254 60.141 60.141 0 0 0-19.157-12.337 63.276 63.276 0 0 0-46.942 0 60.1 60.1 0 0 0-19.156 12.337 58.569 58.569 0 0 0-12.839 18.254 54.96 54.96 0 0 0 0 44.534 58.533 58.533 0 0 0 12.839 18.255 60.092 60.092 0 0 0 19.156 12.336 63.25 63.25 0 0 0 42.428 1.6 64.687 64.687 0 0 0 16.449-8.024 55.778 55.778 0 0 0 13.04-12.336 57.857 57.857 0 0 0 7.026-11.889Zm-37.557-49.338a29.89 29.89 0 0 1 34.6 0 31.444 31.444 0 0 1 11.033 14.142h-56.569a31.656 31.656 0 0 1 10.935-14.142M452.136 68.004a59.64 59.64 0 0 0-54.864-35.105 60.1 60.1 0 0 0-23.169 4.514 58.7 58.7 0 0 0-31.7 30.591 54.945 54.945 0 0 0 0 44.533 58.705 58.705 0 0 0 31.7 30.592 60.117 60.117 0 0 0 23.169 4.513 35.331 35.331 0 0 0 16.549-3.912 38.863 38.863 0 0 0 12.738-10.531v.4a28.817 28.817 0 0 1-2.609 11.233 31.377 31.377 0 0 1-6.318 9.128 28.475 28.475 0 0 1-20.362 8.325 27.589 27.589 0 0 1-13.34-3.309 28.637 28.637 0 0 1-6.587-4.889h-34.9a53.4 53.4 0 0 0 6.784 11.91 57.559 57.559 0 0 0 12.938 12.537 61.9 61.9 0 0 0 58.477 6.522 59.23 59.23 0 0 0 18.961-12.339 58.114 58.114 0 0 0 12.638-18.254 54.449 54.449 0 0 0 4.613-22.267V90.271a53.482 53.482 0 0 0-4.714-22.267m-27.927 33.026a29.324 29.324 0 0 1-15.576 15.576 29.112 29.112 0 0 1-22.922 0 29.332 29.332 0 0 1-15.577-15.576 29.125 29.125 0 0 1 0-22.922 29.321 29.321 0 0 1 15.577-15.576 29.112 29.112 0 0 1 22.922 0 29.314 29.314 0 0 1 15.576 15.576 29.111 29.111 0 0 1 0 22.922M511.997 128.329a19.313 19.313 0 1 1-19.309-19.31 19.313 19.313 0 0 1 19.309 19.31M15.564 198.007q-1.419-.92-1.419-3.435v-12.675H9.678v-2.29h4.467v-4.321h3.273v4.321h6.306v2.29h-6.306v11.9a2.879 2.879 0 0 0 .719 2.322 3.26 3.26 0 0 0 2.055.564 7.176 7.176 0 0 0 2.29-.371v2.21a13.938 13.938 0 0 1-3.386.4 6.366 6.366 0 0 1-3.532-.92"/>
    <path d="M19.096 199.22a6.691 6.691 0 0 1-3.692-.966c-1.03-.668-1.552-1.907-1.552-3.682v-12.38H9.385v-2.884h4.467v-4.321h3.864v4.321h6.3v2.88h-6.3v11.61a2.654 2.654 0 0 0 .6 2.09 3 3 0 0 0 1.873.5 6.934 6.934 0 0 0 2.2-.356l.388-.129v2.848l-.224.055a14.25 14.25 0 0 1-3.458.412M9.972 181.6h4.467v12.97c0 1.562.432 2.635 1.284 3.187a6.1 6.1 0 0 0 3.37.872 13.794 13.794 0 0 0 3.092-.34v-1.581a7.522 7.522 0 0 1-2 .268 3.556 3.556 0 0 1-2.237-.628 3.1 3.1 0 0 1-.831-2.553v-12.2h6.306v-1.7h-6.306v-4.32h-2.683v4.32H9.967ZM34.052 196.298a11.637 11.637 0 0 1-1.959-7.176q0-4.838 2-7.265t6.321-2.426q4.434 0 6.345 2.426t1.911 7.216a7.948 7.948 0 0 1-.065 1.049H34.899v-2.032h10.707l-.177.355q0-3.74-1.322-5.3a4.584 4.584 0 0 0-3.692-1.556 4.724 4.724 0 0 0-3.733 1.629q-1.428 1.629-1.428 5.9 0 4.048 1.38 5.829a4.568 4.568 0 0 0 3.829 1.782v2.145q-4.45 0-6.41-2.58m8.853-.041a3.361 3.361 0 0 0 1.613-1.6 9.71 9.71 0 0 0 .847-2.532l2.934.79a7.251 7.251 0 0 1-1.274 3.338 5.777 5.777 0 0 1-2.571 2 10.848 10.848 0 0 1-3.992.629v-2.145a5.824 5.824 0 0 0 2.443-.475"/>
    <path d="M40.758 199.172h-.59c-2.9-.057-5.035-.962-6.35-2.694a11.974 11.974 0 0 1-2.019-7.356c0-3.279.7-5.787 2.067-7.451 1.385-1.682 3.588-2.535 6.549-2.535 3.037 0 5.251.855 6.576 2.541 1.31 1.662 1.975 4.152 1.975 7.4a8.37 8.37 0 0 1-.067 1.086l-.034.256H35.587a8 8 0 0 0 1.278 4.354 4.254 4.254 0 0 0 3.6 1.668 5.554 5.554 0 0 0 2.319-.449 3.047 3.047 0 0 0 1.473-1.47 9.438 9.438 0 0 0 .82-2.455l.061-.31 3.49.939-.035.259a7.59 7.59 0 0 1-1.328 3.471 6.094 6.094 0 0 1-2.7 2.1 10.814 10.814 0 0 1-3.8.648Zm0-2.15v1.558a10.212 10.212 0 0 0 3.586-.606 5.509 5.509 0 0 0 2.443-1.9 6.856 6.856 0 0 0 1.181-2.946l-2.379-.641a9.867 9.867 0 0 1-.808 2.3 3.659 3.659 0 0 1-1.753 1.739 5.936 5.936 0 0 1-2.27.5m-.344-17.3c-2.776 0-4.827.781-6.094 2.321-1.283 1.556-1.932 3.937-1.932 7.076a11.4 11.4 0 0 0 1.9 7c1.2 1.579 3.176 2.4 5.881 2.46v-1.558a4.811 4.811 0 0 1-3.768-1.89 8.594 8.594 0 0 1-1.4-4.715h-.394v-2.628h.392c.131-2.231.613-3.8 1.464-4.77a5.029 5.029 0 0 1 3.952-1.73 4.884 4.884 0 0 1 3.918 1.66 7.891 7.891 0 0 1 1.382 4.84h.369l-.949 1.9v-1.308h-9.574c-.007.238-.012.485-.012.737s0 .477.012.707h12.783c.023-.238.034-.491.034-.753 0-3.11-.622-5.477-1.848-7.034-1.21-1.537-3.266-2.316-6.114-2.316m-4.827 8.071h9.536a7.312 7.312 0 0 0-1.241-4.457 4.269 4.269 0 0 0-3.469-1.453 4.406 4.406 0 0 0-3.512 1.528 7.411 7.411 0 0 0-1.315 4.381M59.575 196.369q-1.967-2.508-1.968-7.185 0-4.933 1.968-7.337t6.369-2.4q4.031 0 5.733 2.056a7.816 7.816 0 0 1 1.862 4.572l-2.919.968a6.125 6.125 0 0 0-1.266-3.855 4.181 4.181 0 0 0-3.411-1.45 4.529 4.529 0 0 0-3.636 1.629q-1.378 1.629-1.379 5.821 0 3.92 1.387 5.669a4.41 4.41 0 0 0 3.628 1.75 4.042 4.042 0 0 0 3.4-1.573 6.219 6.219 0 0 0 1.274-3.7l2.919 1a7.98 7.98 0 0 1-1.871 4.394q-1.709 2.152-5.725 2.152-4.4 0-6.369-2.507"/>
    <path d="M65.942 199.172c-3.017 0-5.237-.881-6.6-2.621-1.347-1.716-2.03-4.194-2.03-7.366 0-3.344.684-5.876 2.034-7.525 1.364-1.666 3.583-2.509 6.6-2.509 2.768 0 4.773.727 5.961 2.163a8.141 8.141 0 0 1 1.929 4.74l.014.226-3.512 1.165-.011-.4a5.873 5.873 0 0 0-1.2-3.674 3.864 3.864 0 0 0-3.183-1.345 4.212 4.212 0 0 0-3.411 1.525c-.87 1.025-1.309 2.92-1.309 5.631 0 2.532.444 4.378 1.322 5.485a4.1 4.1 0 0 0 3.4 1.638 3.733 3.733 0 0 0 3.169-1.458 5.965 5.965 0 0 0 1.213-3.531l.012-.4 3.512 1.2-.016.226a8.321 8.321 0 0 1-1.934 4.557c-1.193 1.5-3.2 2.264-5.956 2.264m0-19.431c-2.829 0-4.895.771-6.142 2.294-1.261 1.541-1.9 3.946-1.9 7.151 0 3.036.641 5.392 1.9 7 1.247 1.588 3.312 2.394 6.138 2.394 2.57 0 4.418-.687 5.494-2.041a7.868 7.868 0 0 0 1.788-4.007l-2.333-.8a6.452 6.452 0 0 1-1.313 3.474 4.341 4.341 0 0 1-3.636 1.688 4.707 4.707 0 0 1-3.859-1.862c-.963-1.214-1.45-3.181-1.45-5.851 0-2.894.473-4.861 1.448-6.011a4.831 4.831 0 0 1 3.861-1.734 4.474 4.474 0 0 1 3.637 1.558 6.232 6.232 0 0 1 1.315 3.641l2.331-.774a7.58 7.58 0 0 0-1.777-4.176c-1.07-1.292-2.922-1.949-5.506-1.949M83.326 173.398h3.258v25.318h-3.258Zm12.029 14.416q0-3.338-1.04-4.725a3.585 3.585 0 0 0-3.058-1.387 4.362 4.362 0 0 0-3.369 1.492 5.364 5.364 0 0 0-1.356 3.749l-1.564-1.016a6.252 6.252 0 0 1 2.065-4.427 7.282 7.282 0 0 1 5.419-2.089 5.228 5.228 0 0 1 4.733 2.185 11.082 11.082 0 0 1 1.425 6.088v11.031h-3.256Z"/>
    <path d="M98.908 199.012h-3.847v-11.2c0-2.15-.331-3.68-.982-4.548a3.272 3.272 0 0 0-2.819-1.268 4.054 4.054 0 0 0-3.153 1.394 4.909 4.909 0 0 0-1.229 2.746v12.873h-3.847v-25.905h3.847v8.138a7.611 7.611 0 0 1 5.575-2.124 5.524 5.524 0 0 1 4.98 2.319 11.414 11.414 0 0 1 1.476 6.249Zm-3.258-.59h2.667v-10.735a10.854 10.854 0 0 0-1.379-5.927c-.9-1.381-2.369-2.052-4.487-2.052a7.023 7.023 0 0 0-5.209 2q-.192.194-.366.39v2.035a5.385 5.385 0 0 1 .793-1.139 4.672 4.672 0 0 1 3.589-1.587 3.88 3.88 0 0 1 3.291 1.5c.739.987 1.1 2.589 1.1 4.9Zm-12.031 0h2.668v-11.285l-1.612-1.049v-.159a6.228 6.228 0 0 1 1.612-4.046v-8.186h-2.668Zm1.648-12.651.99.643c.007-.105.018-.211.03-.313v-3.247a5.416 5.416 0 0 0-1.02 2.916M108.59 179.607h2.547l.71 3.708v15.4h-3.257Zm11.982 8.208q0-3.338-.992-4.725a3.451 3.451 0 0 0-3.007-1.387 4.505 4.505 0 0 0-3.427 1.492 5.27 5.27 0 0 0-1.4 3.749l-1.581-1.016a6.183 6.183 0 0 1 2.125-4.426 7.448 7.448 0 0 1 5.459-2.089q3.322 0 4.7 2.234a11.652 11.652 0 0 1 1.379 6.136v10.934h-3.258Z"/>
    <path d="M124.128 199.011h-3.846v-11.2a8.207 8.207 0 0 0-.938-4.554 3.151 3.151 0 0 0-2.768-1.262 4.183 4.183 0 0 0-3.211 1.4 4.782 4.782 0 0 0-1.224 2.471v13.144h-3.847v-19.7h3.086l.432 2.258c.086-.093.177-.184.271-.275a7.755 7.755 0 0 1 5.665-2.175c2.313 0 3.98.8 4.952 2.373a12 12 0 0 1 1.422 6.291Zm-3.256-.59h2.67v-10.639a11.437 11.437 0 0 0-1.334-5.982c-.871-1.407-2.327-2.092-4.451-2.092a7.2 7.2 0 0 0-5.252 2c-.2.194-.377.388-.545.584l.184.964v.829a5.359 5.359 0 0 1 .793-1.1 4.813 4.813 0 0 1 3.642-1.583 3.743 3.743 0 0 1 3.247 1.509c.7.987 1.048 2.588 1.048 4.9Zm-11.983 0h2.668v-11.253l-1.678-1.079v-.16a6.018 6.018 0 0 1 1.449-3.8l-.43-2.23h-2.01Zm1.583-12.652 1.007.648c.017-.216.042-.425.078-.631v-2.47l-.078-.4a5.294 5.294 0 0 0-1.007 2.855M135.274 196.474q-2.071-2.386-2.072-7.369t2.072-7.337q2.073-2.355 6.346-2.355t6.337 2.355q2.064 2.353 2.065 7.337t-2.065 7.369q-2.064 2.388-6.337 2.387t-6.346-2.387m10.039-1.443q1.452-1.572 1.452-5.911 0-4.321-1.452-5.894a5.123 5.123 0 0 0-7.386 0q-1.45 1.574-1.452 5.894 0 4.339 1.452 5.911a5.123 5.123 0 0 0 7.386 0"/>
    <path d="M141.619 199.156c-2.926 0-5.134-.837-6.567-2.488s-2.145-4.184-2.145-7.563.722-5.915 2.146-7.532 3.641-2.456 6.566-2.456 5.131.826 6.558 2.456 2.138 4.154 2.138 7.532-.717 5.924-2.135 7.561c-1.429 1.653-3.635 2.49-6.561 2.49m0-19.449c-2.747 0-4.807.759-6.124 2.254s-2 3.91-2 7.144.674 5.648 2 7.176 3.375 2.284 6.123 2.284 4.8-.769 6.114-2.284c1.323-1.531 1.993-3.944 1.993-7.176s-.669-5.635-1.992-7.144-3.368-2.254-6.115-2.254m0 17.191a5.105 5.105 0 0 1-3.909-1.667c-1.029-1.115-1.529-3.113-1.529-6.111s.5-4.979 1.529-6.094a5.417 5.417 0 0 1 7.818 0c1.03 1.115 1.531 3.108 1.531 6.094s-.5 5-1.531 6.111a5.1 5.1 0 0 1-3.909 1.667m0-14.951a4.486 4.486 0 0 0-3.476 1.479c-.911.987-1.374 2.9-1.374 5.694s.462 4.725 1.374 5.711a4.827 4.827 0 0 0 6.953 0c.911-.987 1.374-2.909 1.374-5.711s-.462-4.706-1.374-5.694a4.542 4.542 0 0 0-3.477-1.479M160.036 173.398h3.258v25.318h-3.258Z"/>
    <path d="M163.587 199.012h-3.847v-25.908h3.847Zm-3.257-.59h2.667v-24.725h-2.665ZM175.025 196.474q-2.073-2.386-2.072-7.369t2.072-7.337q2.073-2.355 6.346-2.355t6.337 2.355q2.064 2.353 2.064 7.337t-2.064 7.369q-2.064 2.388-6.337 2.387t-6.346-2.387m10.039-1.443q1.45-1.572 1.452-5.911 0-4.321-1.452-5.894a5.123 5.123 0 0 0-7.386 0q-1.452 1.574-1.452 5.894 0 4.339 1.452 5.911a5.123 5.123 0 0 0 7.386 0"/>
    <path d="M181.371 199.156c-2.926 0-5.134-.837-6.568-2.488s-2.145-4.184-2.145-7.563.722-5.918 2.146-7.532c1.434-1.63 3.642-2.456 6.567-2.456s5.13.826 6.557 2.456 2.138 4.154 2.138 7.532-.717 5.924-2.135 7.561c-1.429 1.653-3.635 2.49-6.56 2.49m0-19.449c-2.747 0-4.807.759-6.125 2.254s-2 3.91-2 7.144.673 5.648 2 7.176 3.376 2.284 6.124 2.284 4.8-.769 6.113-2.284c1.323-1.531 1.993-3.944 1.993-7.176s-.669-5.635-1.992-7.144-3.367-2.254-6.114-2.254m0 17.191a5.1 5.1 0 0 1-3.909-1.667c-1.03-1.113-1.529-3.112-1.529-6.111s.5-4.981 1.529-6.094a5.417 5.417 0 0 1 7.818 0c1.029 1.115 1.529 3.108 1.529 6.094s-.5 5-1.529 6.111a5.106 5.106 0 0 1-3.909 1.667m0-14.951a4.487 4.487 0 0 0-3.477 1.479c-.91.987-1.373 2.9-1.373 5.694s.462 4.725 1.373 5.711a4.827 4.827 0 0 0 6.953 0c.911-.987 1.374-2.909 1.374-5.711s-.462-4.706-1.374-5.694a4.54 4.54 0 0 0-3.476-1.479M200.519 196.427q-1.734-2.42-1.733-7.306t1.716-7.289a5.92 5.92 0 0 1 5.154-2.4 8.608 8.608 0 0 1 5.3 1.613q2.161 1.61 2.161 3.306l-1.4 1.661a3.957 3.957 0 0 0-1.46-2.985 5.049 5.049 0 0 0-3.508-1.321 4.13 4.13 0 0 0-3.4 1.571q-1.258 1.572-1.258 5.863t1.258 5.861a4.131 4.131 0 0 0 3.4 1.573 5.071 5.071 0 0 0 3.508-1.314 3.947 3.947 0 0 0 1.46-2.992l1.418 1.741q0 1.759-2.153 3.3a8.867 8.867 0 0 1-5.3 1.54 5.947 5.947 0 0 1-5.169-2.418m1.08 8.36q-2.136-1.408-2.394-4.86h3.21a5.26 5.26 0 0 0 .685 2.426 3.323 3.323 0 0 0 1.58 1.329 5.926 5.926 0 0 0 2.3.42 4.936 4.936 0 0 0 3.434-1.162q1.292-1.161 1.291-4.467v-14.966l.838-3.9h2.439v18.562a9.076 9.076 0 0 1-1.1 4.83 6.092 6.092 0 0 1-2.806 2.483 10.792 10.792 0 0 1-4.185.717 9.388 9.388 0 0 1-5.282-1.412"/>
    <path d="M206.881 206.492a9.72 9.72 0 0 1-5.443-1.459c-1.5-.989-2.347-2.7-2.526-5.086l-.024-.317h3.8l.019.273a5.023 5.023 0 0 0 .641 2.292 3.063 3.063 0 0 0 1.444 1.216 5.685 5.685 0 0 0 2.185.4 4.679 4.679 0 0 0 3.239-1.086c.79-.713 1.192-2.141 1.192-4.247v-1.116a7.487 7.487 0 0 1-.252.186 9.182 9.182 0 0 1-5.469 1.6 6.246 6.246 0 0 1-5.408-2.543c-1.187-1.656-1.789-4.172-1.789-7.477s.6-5.816 1.773-7.46a6.222 6.222 0 0 1 5.392-2.526 8.577 8.577 0 0 1 6.2 2.266l.445-2.089h2.968v18.855a9.408 9.408 0 0 1-1.149 4.988 6.4 6.4 0 0 1-2.943 2.6 11.1 11.1 0 0 1-4.3.741m-5.119-1.952a9.129 9.129 0 0 0 5.119 1.363 10.528 10.528 0 0 0 4.07-.695 5.825 5.825 0 0 0 2.672-2.368 8.842 8.842 0 0 0 1.059-4.674v-18.275h-1.9l-.429 2a3.683 3.683 0 0 1 1.066 2.449v.109l-1.424 1.686v6l1.437 1.765v.1a3.918 3.918 0 0 1-1.436 2.853v1.614c0 2.312-.454 3.845-1.389 4.685a5.243 5.243 0 0 1-3.631 1.237 6.232 6.232 0 0 1-2.41-.442 3.632 3.632 0 0 1-1.719-1.447 5.359 5.359 0 0 1-.7-2.289h-2.614a5.545 5.545 0 0 0 2.235 4.321m3.894-24.817a5.6 5.6 0 0 0-4.913 2.279c-1.1 1.544-1.662 3.939-1.662 7.118s.565 5.58 1.679 7.135a5.619 5.619 0 0 0 4.928 2.3 8.62 8.62 0 0 0 5.125-1.485q.323-.232.6-.468v-2.237a5.2 5.2 0 0 1-.952 1.115 5.361 5.361 0 0 1-3.7 1.39 4.433 4.433 0 0 1-3.634-1.683c-.89-1.115-1.322-3.092-1.322-6.047s.432-4.932 1.322-6.045a4.433 4.433 0 0 1 3.634-1.683 5.353 5.353 0 0 1 3.7 1.4 5.3 5.3 0 0 1 .951 1.119v-.416l.305-1.431a8.2 8.2 0 0 0-.929-.8 8.365 8.365 0 0 0-5.128-1.555m1.1 2.274a3.815 3.815 0 0 0-3.173 1.461c-.793.991-1.194 2.9-1.194 5.677s.4 4.688 1.194 5.678a3.814 3.814 0 0 0 3.173 1.462 4.8 4.8 0 0 0 3.31-1.238 3.72 3.72 0 0 0 1.345-2.435v-6.929a3.741 3.741 0 0 0-1.346-2.431 4.782 4.782 0 0 0-3.309-1.246m5.243 11.074v2.944a3.1 3.1 0 0 0 .844-1.905Zm.2-10.438-.2.937v1.658l.832-.986a2.928 2.928 0 0 0-.632-1.608M224.071 179.607h3.419l5.016 17.756h-.71l4.951-17.756h3.418l-5.531 19.11h-4.951Zm.775 24.3a7.714 7.714 0 0 0 4.3-1.031q1.556-1.033 2.476-4.193l3.016.032q-1.29 4.482-3.677 5.967a11.423 11.423 0 0 1-6.111 1.488Z"/>
    <path d="M224.847 206.461h-.295v-2.848h.295a7.483 7.483 0 0 0 4.136-.982 6.643 6.643 0 0 0 2.229-3.621h-1.747l-5.786-19.7h4.036l.06.214 4.374 15.481 4.376-15.7h4.035l-5.641 19.486-.019.069-.043.144c-.874 2.931-2.133 4.922-3.743 5.921a11.742 11.742 0 0 1-6.266 1.529m.295-2.261v1.668a10.971 10.971 0 0 0 5.661-1.436c1.454-.9 2.608-2.726 3.437-5.422h-2.412a7.365 7.365 0 0 1-2.52 4.112 7.792 7.792 0 0 1-4.167 1.078m4.764-5.779h4.508l5.36-18.518h-2.8l-4.515 16.2.44 1.559h-1.486l.435-1.558-4.576-16.2h-2.8Z"/>
  </g>
</svg>